<svg width="1462" height="310" viewBox="0 0 1462 310" fill="none" xmlns="http://www.w3.org/2000/svg">
<path d="M528.48 72.68H519.33C464.45 72.68 427.86 109.27 427.86 155C427.86 200.73 464.45 237.32 519.33 237.32H528.48C583.36 237.32 619.95 200.73 619.95 155C619.95 109.27 583.37 72.68 528.48 72.68ZM527.61 204.79H520.21C473.6 204.79 446.16 184.87 446.16 155C446.16 125.13 473.6 105.21 520.21 105.21H527.61C574.22 105.21 601.66 125.13 601.66 155C601.66 184.87 574.22 204.79 527.61 204.79Z" fill="white"/>
<path d="M1201.71 72.68H1192.56C1137.68 72.68 1101.09 109.27 1101.09 155C1101.09 200.73 1137.68 237.32 1192.56 237.32H1201.71C1256.59 237.32 1293.18 200.73 1293.18 155C1293.18 109.27 1256.6 72.68 1201.71 72.68ZM1200.84 204.79H1193.44C1146.83 204.79 1119.39 184.87 1119.39 155C1119.39 125.13 1146.83 105.21 1193.44 105.21H1200.84C1247.45 105.21 1274.89 125.13 1274.89 155C1274.89 184.87 1247.45 204.79 1200.84 204.79Z" fill="white"/>
<path d="M724.23 77.25C669.35 77.25 651.05 77.25 651.05 77.25V232.75C651.05 232.75 669.34 232.75 724.23 232.75C779.12 232.75 806.55 196.16 806.55 150.43C806.56 104.69 779.12 77.25 724.23 77.25ZM725.25 202.57C682.63 202.57 668.43 202.57 668.43 202.57V107.44C668.43 107.44 682.63 107.44 725.25 107.44C767.86 107.44 789.17 124.23 789.17 152.21C789.18 180.18 767.87 202.57 725.25 202.57Z" fill="white"/>
<path d="M863.27 77.25H841.32V232.75H863.27V77.25Z" fill="white"/>
<path d="M1051.7 145.85H978.52V164.14H1060.84C1060.84 182.43 1025.72 200.73 995.94 200.73H988.54C944.11 200.73 914.49 180.4 914.49 154.99C914.49 129.58 944.11 109.25 988.54 109.25H995.94C1025.72 109.25 1048.83 118.39 1060.84 132.06V94.65C1044.97 80.99 1022.98 72.66 996.81 72.66H987.66C932.78 72.66 896.19 109.25 896.19 154.98C896.19 200.71 932.78 237.3 987.66 237.3H996.81C1051.69 237.3 1079.13 200.71 1079.13 173.27C1079.14 155 1066.79 145.85 1051.7 145.85Z" fill="white"/>
<path d="M1461.49 118.41V90.97C1461.49 90.97 1443.2 72.68 1388.31 72.68C1342.57 72.68 1315.13 90.97 1315.13 118.42C1315.13 173.3 1443.19 164.16 1443.19 191.6C1443.19 200.34 1434.04 209.89 1388.31 209.89C1342.58 209.89 1315.13 191.6 1315.13 191.6V219.04C1315.13 219.04 1333.42 237.33 1388.31 237.33C1443.2 237.33 1461.49 219.04 1461.49 191.59C1461.49 136.71 1333.43 145.85 1333.43 118.41C1333.43 109.26 1342.58 100.12 1388.31 100.12C1434.04 100.12 1461.49 118.41 1461.49 118.41Z" fill="white"/>
<path d="M273.94 0H37.75C17.4 0 0.849976 16.56 0.849976 36.9V273.09C0.849976 293.44 17.41 309.99 37.75 309.99H273.94C294.29 309.99 310.84 293.43 310.84 273.09V36.9C310.84 16.56 294.29 0 273.94 0ZM296.08 131.12V178.89V273.1C296.08 285.31 286.15 295.24 273.94 295.24H85.52H37.75C25.54 295.24 15.61 285.31 15.61 273.1V263.98V169.77V140.25V46.04V36.92C15.61 24.71 25.54 14.78 37.75 14.78H85.52H273.94C286.15 14.78 296.08 24.71 296.08 36.92V131.12Z" fill="white"/>
<path d="M277.82 137.39C278.87 136.74 281.32 134.83 281.32 131.11V36.9C281.32 32.83 278.01 29.52 273.94 29.52H85.5199C80.0999 29.52 78.6499 33.87 78.3399 35.21C78.0299 36.54 77.3799 41.08 82.2199 43.51L193.71 99.26L236.07 120.44C236.07 120.44 236.07 120.44 236.08 120.44L270.64 137.72C273.96 139.38 276.76 138.05 277.82 137.39Z" fill="white"/>
<path d="M233.35 141.93C233.66 140.6 234.31 136.06 229.48 133.64L75.62 56.71L41.05 39.43C39.87 38.84 38.76 38.63 37.77 38.63C35.96 38.63 34.55 39.33 33.87 39.75C32.82 40.4 30.37 42.31 30.37 46.03V140.24C30.37 144.31 33.68 147.62 37.75 147.62H226.17C231.59 147.62 233.04 143.27 233.35 141.93Z" fill="white"/>
<path d="M229.47 133.64L75.62 56.71L229.48 133.64H229.47Z" fill="white"/>
<path d="M78.3299 274.79C78.6499 276.12 80.09 280.48 85.51 280.48H273.93C278 280.48 281.31 277.17 281.31 273.1V178.89C281.31 175.18 278.86 173.26 277.81 172.61C277.13 172.19 275.72 171.49 273.91 171.49C272.92 171.49 271.8 171.7 270.63 172.29L236.08 189.57C236.07 189.57 236.07 189.58 236.06 189.58L82.19 266.52C77.37 268.93 78.0199 273.46 78.3299 274.79Z" fill="white"/>
<path d="M233.35 168.07C233.03 166.74 231.59 162.38 226.17 162.38H37.75C33.68 162.38 30.37 165.69 30.37 169.76V263.97C30.37 267.68 32.82 269.6 33.87 270.25C34.92 270.9 37.73 272.24 41.05 270.57L75.6 253.29C75.6 253.29 75.61 253.29 75.61 253.28L152.54 214.82L229.47 176.36C234.32 173.94 233.67 169.4 233.35 168.07Z" fill="white"/>
<path d="M75.6 253.3L152.54 214.83L75.62 253.29L75.6 253.3Z" fill="white"/>
</svg>
