<svg width="311" height="311" viewBox="0 0 311 311" fill="none" xmlns="http://www.w3.org/2000/svg">
<path d="M273.94 0.780029H37.75C17.4 0.780029 0.849976 17.34 0.849976 37.68V273.87C0.849976 294.22 17.41 310.77 37.75 310.77H273.94C294.29 310.77 310.84 294.21 310.84 273.87V37.68C310.84 17.33 294.29 0.780029 273.94 0.780029ZM296.08 131.89V179.66V273.87C296.08 286.08 286.15 296.01 273.94 296.01H85.52H37.75C25.54 296.01 15.61 286.08 15.61 273.87V264.75V170.54V141.02V46.81V37.69C15.61 25.48 25.54 15.55 37.75 15.55H85.52H273.94C286.15 15.55 296.08 25.48 296.08 37.69V131.89Z" fill="black"/>
<path d="M277.82 138.17C278.87 137.52 281.32 135.61 281.32 131.89V37.68C281.32 33.61 278.01 30.3 273.94 30.3H85.5199C80.0999 30.3 78.6499 34.6501 78.3399 35.9901C78.0299 37.3201 77.3799 41.86 82.2199 44.29L193.71 100.04L236.07 121.22C236.07 121.22 236.07 121.22 236.08 121.22L270.64 138.5C273.96 140.15 276.76 138.82 277.82 138.17Z" fill="black"/>
<path d="M233.35 142.71C233.66 141.38 234.31 136.84 229.48 134.42L75.62 57.49L41.05 40.21C39.87 39.62 38.76 39.41 37.77 39.41C35.96 39.41 34.55 40.11 33.87 40.53C32.82 41.18 30.37 43.09 30.37 46.81V141.02C30.37 145.09 33.68 148.4 37.75 148.4H226.17C231.59 148.4 233.04 144.05 233.35 142.71Z" fill="black"/>
<path d="M229.47 134.41L75.62 57.4901L229.48 134.42L229.47 134.41Z" fill="black"/>
<path d="M78.3299 275.57C78.6499 276.9 80.0899 281.26 85.5099 281.26H273.93C278 281.26 281.31 277.95 281.31 273.88V179.67C281.31 175.96 278.86 174.04 277.81 173.39C277.13 172.97 275.72 172.27 273.91 172.27C272.92 172.27 271.8 172.48 270.63 173.07L236.08 190.35C236.07 190.35 236.07 190.36 236.06 190.36L82.1999 267.28C77.3699 269.71 78.0199 274.24 78.3299 275.57Z" fill="black"/>
<path d="M233.35 168.84C233.03 167.51 231.59 163.15 226.17 163.15H37.75C33.68 163.15 30.37 166.46 30.37 170.53V264.74C30.37 268.45 32.82 270.37 33.87 271.02C34.92 271.67 37.73 273.01 41.05 271.34L75.6 254.06C75.6 254.06 75.61 254.06 75.61 254.05L152.54 215.59L229.47 177.13C234.32 174.72 233.67 170.18 233.35 168.84Z" fill="black"/>
<path d="M75.6 254.08L152.54 215.61L75.62 254.07L75.6 254.08Z" fill="black"/>
</svg>
